<?xml version="1.0" encoding="UTF-8"?>
<svg id="shapes" xmlns="http://www.w3.org/2000/svg" xmlns:xlink="http://www.w3.org/1999/xlink" viewBox="0 0 2556.2 599.11">
	<defs>
		<style>
			.cls-1{fill:#34a853;}.cls-2{fill:#34a853;}.cls-3{fill:#0f9d58;}.cls-4{fill:#174ea6;}.cls-5{fill:#4285f4;}.cls-6{fill:#188038;}.cls-7{fill:#1967d2;}.cls-8{fill:#9aa0a6;}.cls-9{stroke:url(#linear-gradient);}.cls-9,.cls-10,.cls-11,.cls-12,.cls-13,.cls-14,.cls-15,.cls-16,.cls-17,.cls-18{fill:none;stroke-linecap:round;stroke-miterlimit:10;}.cls-9,.cls-13,.cls-14,.cls-15,.cls-16,.cls-17,.cls-18{stroke-width:30px;}.cls-10,.cls-11,.cls-12{stroke:#9aa0a6;stroke-width:2px;}.cls-11{stroke-dasharray:0 0 .05 6;}.cls-12{stroke-dasharray:0 0 .05 5.99;}.cls-13{stroke:url(#linear-gradient-6);}.cls-14{stroke:url(#linear-gradient-7);}.cls-15{stroke:url(#linear-gradient-5);}.cls-16{stroke:url(#linear-gradient-2);}.cls-17{stroke:url(#linear-gradient-3);}.cls-18{stroke:url(#linear-gradient-4);}
		</style>
		<linearGradient id="linear-gradient" x1="10160.2" y1="6990.35" x2="10280.3" y2="6990.35" gradientTransform="translate(-5208.18 10484.3) rotate(-90)" gradientUnits="userSpaceOnUse">
			<stop offset="0" stop-color="#34a853" />
			<stop offset="1" stop-color="#5bb974" />
		</linearGradient>
		<linearGradient id="linear-gradient-2" x1="1903.81" y1="141.62" x2="1978.86" y2="141.62" gradientUnits="userSpaceOnUse">
			<stop offset="0" stop-color="#34a853" />
			<stop offset="1" stop-color="#5bb974" />
		</linearGradient>
		<linearGradient id="linear-gradient-3" x1="1927.84" y1="329.25" x2="2071.93" y2="329.25" gradientUnits="userSpaceOnUse">
			<stop offset="0" stop-color="#34a853" />
			<stop offset="1" stop-color="#5bb974" />
		</linearGradient>
		<linearGradient id="linear-gradient-4" x1="420.3" y1="117.15" x2="694.97" y2="117.15" gradientTransform="translate(-5.54 106.19) rotate(-9.08)" gradientUnits="userSpaceOnUse">
			<stop offset="0" stop-color="#669df6" />
			<stop offset="1" stop-color="#4285f4" />
		</linearGradient>
		<linearGradient id="linear-gradient-5" x1="165.1" y1="139.62" x2="296.22" y2="139.62" gradientTransform="translate(5.12 64.36) rotate(-4.25)" xlink:href="#linear-gradient-4" />
		<linearGradient id="linear-gradient-6" x1="2468.75" y1="451.91" x2="2582.82" y2="451.91" gradientUnits="userSpaceOnUse">
			<stop offset="0" stop-color="#34a853" />
			<stop offset="1" stop-color="#5bb974" />
		</linearGradient>
		<linearGradient id="linear-gradient-7" x1="2243.95" y1="351.24" x2="2390.38" y2="351.24" xlink:href="#linear-gradient-6" />
	</defs>
	<path class="cls-10" d="m.8,383.2s0-.01.01-.02" />
	<path class="cls-12" d="m4.16,378.22c70.97-103.52,213.64-218.52,435.06-247.33,218.43-28.42,393.53,64.85,609.51-3.9,185.17-58.95,281.36-169.51,295.69-186.99" />
	<circle class="cls-5" cx="810.8" cy="150.76" r="15" />
	<circle class="cls-8" cx="1860.37" cy="108.64" r="5" />
	<circle class="cls-8" cx="1052.41" cy="126.17" r="5" />
	<path class="cls-11" d="m1964.52,163.79c-19.08-32.9-54.68-55.04-95.45-55.04-60.89,0-110.25,49.36-110.25,110.25s49.36,110.25,110.25,110.25h284.97c179.2,0,303.9,70.5,303.9,70.5,75.23,39.66,109.87,89.41,109.87,89.41" />
	<path class="cls-9" d="m1805.51,309.09c-28.25-19.96-46.69-52.88-46.69-90.09" />
	<circle class="cls-1" cx="1794.97" cy="300.6" r="15" />
	<path class="cls-1" d="m1773.09,258.23c8.28,0,15,6.72,15,15s-6.72,15-15,15c-8.28,0-15-6.72-15-15s6.72-15,15-15Z" />
	<circle class="cls-2" cx="1780.7" cy="152.55" r="15" />
	<circle class="cls-2" cx="2127.63" cy="329.25" r="15" />
	<circle class="cls-3" cx="1805.51" cy="309.09" r="15" />
	<path class="cls-16" d="m1963.86,162.65c-10.69-17.95-26.34-32.6-45.05-42.07" />
	<circle class="cls-6" cx="1937.7" cy="132.65" r="15" />
	<line class="cls-17" x1="1942.84" y1="329.25" x2="2056.93" y2="329.25" />
	<path class="cls-1" d="m2012.77,314.25c8.28,0,15,6.72,15,15s-6.72,15-15,15c-8.28,0-15-6.72-15-15s6.72-15,15-15Z" />
	<path class="cls-18" d="m687.96,136.89c-79.53-9.34-160.57-17.47-248.74-6" />
	<circle class="cls-7" cx="662.2" cy="133.92" r="15" />
	<circle class="cls-7" cx="565.3" cy="125.94" r="15" />
	<circle class="cls-4" cx="687.96" cy="136.89" r="15" />
	<path class="cls-15" d="m294.59,164.73c-35.58,12.4-68.28,27.14-98.17,43.53" />
	<circle class="cls-7" cx="260.18" cy="177.86" r="15" />
	<circle class="cls-5" cx="101.69" cy="271.68" r="15" />
	<path class="cls-13" d="m2483.75,414.65c57.38,36.19,84.07,74.51,84.07,74.51" />
	<path class="cls-14" d="m2258.95,337.25c45.54,6.94,84.96,17.5,116.43,27.97" />
	<circle class="cls-1" cx="2297.73" cy="344.25" r="15" />
	<circle class="cls-1" cx="2509.03" cy="432" r="15" />
	<circle class="cls-3" cx="2321.66" cy="349.69" r="15" />
</svg>
