<?xml version="1.0" standalone="no"?>
<!DOCTYPE svg PUBLIC "-//W3C//DTD SVG 20010904//EN"
 "http://www.w3.org/TR/2001/REC-SVG-20010904/DTD/svg10.dtd">
<svg version="1.0" xmlns="http://www.w3.org/2000/svg"
 width="245.000000pt" height="245.000000pt" viewBox="0 0 245.000000 245.000000"
 preserveAspectRatio="xMidYMid meet">
<metadata>
Created by potrace 1.14, written by Peter Selinger 2001-2017
</metadata>
<g transform="translate(0.000000,245.000000) scale(0.100000,-0.100000)"
fill="#000000" stroke="none">
<path d="M1165 1908 c-51 -44 -36 -135 24 -156 l26 -9 -3 -171 -3 -170 -24 -6
c-58 -15 -69 -115 -18 -156 61 -48 143 -5 143 75 0 34 -36 85 -59 85 -16 0
-18 14 -17 174 l0 173 28 11 c53 20 64 98 19 143 -36 36 -79 38 -116 7z"/>
<path d="M884 1799 c-38 -11 -60 -35 -67 -74 -15 -84 88 -141 148 -80 14 13
25 30 26 37 0 7 2 22 4 33 9 48 -58 98 -111 84z"/>
<path d="M1513 1798 c-41 -11 -63 -42 -63 -89 0 -89 133 -122 169 -42 34 73
-30 152 -106 131z"/>
<path d="M882 1498 c3 -104 1 -114 -17 -123 -11 -6 -28 -27 -38 -47 -16 -33
-17 -40 -3 -71 25 -61 92 -76 143 -33 22 19 28 32 28 64 0 45 -34 92 -66 92
-22 0 -30 13 -30 48 0 15 1 54 2 87 2 85 0 95 -11 95 -7 0 -10 -40 -8 -112z"/>
<path d="M1543 1500 c0 -82 3 -110 13 -110 9 0 12 28 13 110 0 83 -3 110 -13
110 -10 0 -13 -27 -13 -110z"/>
<path d="M1011 1559 c-53 -21 -67 -80 -28 -124 31 -37 82 -37 114 -1 37 44 28
97 -22 120 -18 9 -35 16 -37 15 -1 0 -14 -5 -27 -10z"/>
<path d="M1369 1556 c-13 -6 -30 -23 -36 -38 -26 -52 29 -125 82 -109 46 14
65 35 65 72 0 64 -56 103 -111 75z"/>
<path d="M1514 1382 c-64 -10 -89 -108 -39 -157 37 -38 95 -35 129 6 33 39 33
79 1 117 -25 30 -52 40 -91 34z"/>
<path d="M1210 1135 l0 -76 -35 34 c-38 37 -132 90 -177 101 -52 12 -29 -12
45 -47 87 -43 143 -96 158 -151 12 -45 6 -184 -12 -250 -15 -57 -47 -112 -73
-124 -11 -6 -70 -13 -131 -17 -129 -7 -159 -10 -202 -19 -32 -7 -46 -25 -20
-27 6 0 21 -2 32 -5 101 -21 685 -28 800 -10 92 15 105 19 93 31 -10 10 -121
24 -238 31 -125 6 -144 15 -177 78 -21 39 -40 166 -37 248 2 74 22 118 77 164
31 26 126 74 146 74 6 0 11 7 11 16 0 11 -6 14 -22 9 -47 -13 -148 -69 -175
-96 -15 -16 -31 -29 -34 -29 -4 0 -6 30 -5 67 0 45 -3 68 -12 71 -9 3 -12 -16
-12 -73z"/>
<path d="M947 1089 c-29 -17 -45 -60 -36 -95 15 -53 89 -72 126 -31 35 36 34
77 -2 112 -25 26 -58 31 -88 14z"/>
<path d="M1403 1074 c-21 -21 -24 -32 -19 -62 11 -70 83 -96 131 -47 27 26 31
54 13 88 -28 53 -83 62 -125 21z"/>
</g>
</svg>
